<svg width="10" height="10" viewBox="0 0 10 10" fill="none" xmlns="http://www.w3.org/2000/svg">
<path d="M0.881654 5.03504C1.21999 5.37337 1.77999 5.37337 2.11832 5.03504L4.12499 3.02837L4.12499 9.08337C4.12499 9.56171 4.52165 9.95837 4.99999 9.95837C5.47832 9.95837 5.87499 9.56171 5.87499 9.08337L5.87499 3.02837L7.88165 5.03504C8.21999 5.37337 8.77999 5.37337 9.11832 5.03504C9.45665 4.69671 9.45665 4.13671 9.11832 3.79837L5.61832 0.298372C5.44332 0.123372 5.22165 0.0417067 4.99999 0.0417067C4.77832 0.0417066 4.55665 0.123372 4.38165 0.298372L0.881654 3.79837C0.54332 4.13671 0.54332 4.69671 0.881654 5.03504Z" fill="#D5D8E4"/>
</svg>
