<svg width="22" height="22" viewBox="0 0 22 22" fill="none" xmlns="http://www.w3.org/2000/svg">
<path d="M20.1666 6.92087C20.1666 7.52587 19.6716 8.02087 19.0666 8.02087H2.93325C2.32825 8.02087 1.83325 7.52587 1.83325 6.92087V6.9117C1.83325 4.81253 3.52909 3.1167 5.62825 3.1167H16.3624C18.4616 3.1167 20.1666 4.8217 20.1666 6.92087Z" fill="#848793"/>
<path d="M1.83325 10.4959V15.0884C1.83325 17.1875 3.52909 18.8834 5.62825 18.8834H16.3624C18.4616 18.8834 20.1666 17.1784 20.1666 15.0792V10.4959C20.1666 9.89087 19.6716 9.39587 19.0666 9.39587H2.93325C2.32825 9.39587 1.83325 9.89087 1.83325 10.4959ZM7.33325 15.8125H5.49992C5.12409 15.8125 4.81242 15.5009 4.81242 15.125C4.81242 14.7492 5.12409 14.4375 5.49992 14.4375H7.33325C7.70909 14.4375 8.02075 14.7492 8.02075 15.125C8.02075 15.5009 7.70909 15.8125 7.33325 15.8125ZM13.2916 15.8125H9.62492C9.24909 15.8125 8.93742 15.5009 8.93742 15.125C8.93742 14.7492 9.24909 14.4375 9.62492 14.4375H13.2916C13.6674 14.4375 13.9791 14.7492 13.9791 15.125C13.9791 15.5009 13.6674 15.8125 13.2916 15.8125Z" fill="#848793"/>
</svg>
