<svg width="36" height="36" viewBox="0 0 36 36" fill="none" xmlns="http://www.w3.org/2000/svg">
<path d="M33 11.715V22.74C32.565 22.53 32.085 22.38 31.545 22.29L31.08 22.215L30.69 21.405C29.865 19.725 28.515 18.75 27 18.75C25.485 18.75 24.135 19.725 23.31 21.405L22.905 22.215L22.455 22.29C20.67 22.59 19.38 23.58 18.915 24.99C18.465 26.415 18.93 27.975 20.205 29.265L20.67 29.73L20.625 29.91C20.325 31.245 20.445 32.265 20.73 33H11.715C6.255 33 3 29.745 3 24.285V11.715C3 6.255 6.255 3 11.715 3H24.285C29.745 3 33 6.255 33 11.715Z" fill="#7C5319"/>
<path d="M28.6801 22.41L29.1601 23.385C29.4001 23.865 30.0151 24.315 30.5251 24.405L31.1701 24.51C33.1351 24.84 33.5851 26.28 32.1901 27.69L31.5901 28.29C31.1851 28.695 30.9751 29.475 31.0951 30.045L31.1701 30.405C31.7101 32.775 30.4501 33.69 28.3951 32.445L27.9601 32.175C27.4351 31.86 26.5651 31.86 26.0401 32.175L25.6051 32.445C23.5351 33.69 22.2901 32.775 22.8301 30.405L22.9051 30.045C23.0251 29.49 22.8151 28.695 22.4101 28.29L21.8101 27.69C20.4151 26.265 20.8651 24.84 22.8301 24.51L23.4751 24.405C24.0001 24.315 24.6001 23.865 24.8401 23.385L25.3201 22.41C26.2501 20.535 27.7501 20.535 28.6801 22.41Z" fill="#FF9500"/>
<path fill-rule="evenodd" clip-rule="evenodd" d="M24.1942 11.8758C24.6853 12.2565 24.7748 12.9631 24.3941 13.4542L20.9224 17.9327C20.0301 19.0613 18.3849 19.2671 17.2371 18.3801L17.2293 18.3741L14.4894 16.2181C14.3201 16.0895 14.084 16.1215 13.9555 16.2874C13.9554 16.2875 13.9556 16.2872 13.9555 16.2874L10.3862 20.9214C10.0071 21.4137 9.30068 21.5054 8.80845 21.1262C8.31621 20.7471 8.22452 20.0407 8.60366 19.5485L12.1747 14.9121C13.0656 13.7592 14.7174 13.5508 15.8678 14.4398L15.8757 14.4458L18.6155 16.6018C18.7866 16.7317 19.0276 16.6982 19.1552 16.54L22.6158 12.0757C22.9965 11.5846 23.7032 11.4951 24.1942 11.8758Z" fill="#FF9500"/>
</svg>
