<svg width="22" height="22" viewBox="0 0 22 22" fill="none" xmlns="http://www.w3.org/2000/svg">
<path d="M10.9999 1.83331C5.94908 1.83331 1.83325 5.94915 1.83325 11C1.83325 16.0508 5.94908 20.1666 10.9999 20.1666C16.0508 20.1666 20.1666 16.0508 20.1666 11C20.1666 5.94915 16.0508 1.83331 10.9999 1.83331ZM14.0799 13.1083C14.3458 13.3741 14.3458 13.8141 14.0799 14.08C13.9424 14.2175 13.7683 14.2816 13.5941 14.2816C13.4199 14.2816 13.2458 14.2175 13.1083 14.08L10.9999 11.9716L8.89158 14.08C8.75408 14.2175 8.57992 14.2816 8.40575 14.2816C8.23159 14.2816 8.05742 14.2175 7.91992 14.08C7.65409 13.8141 7.65409 13.3741 7.91992 13.1083L10.0283 11L7.91992 8.89165C7.65409 8.62581 7.65409 8.18581 7.91992 7.91998C8.18575 7.65415 8.62575 7.65415 8.89158 7.91998L10.9999 10.0283L13.1083 7.91998C13.3741 7.65415 13.8141 7.65415 14.0799 7.91998C14.3458 8.18581 14.3458 8.62581 14.0799 8.89165L11.9716 11L14.0799 13.1083Z" fill="white" fill-opacity="0.5"/>
</svg>
