<svg width="16" height="16" viewBox="0 0 16 16" fill="none" xmlns="http://www.w3.org/2000/svg">
<path d="M11.3333 8.93329V10.9333C11.3333 13.6 10.2666 14.6666 7.59992 14.6666H5.06659C2.39992 14.6666 1.33325 13.6 1.33325 10.9333V8.39996C1.33325 5.73329 2.39992 4.66663 5.06659 4.66663H7.06659" stroke="#048DD7" stroke-width="1.3" stroke-linecap="round" stroke-linejoin="round"/>
<path d="M11.3333 8.93329H9.19998C7.59998 8.93329 7.06665 8.39996 7.06665 6.79996V4.66663L11.3333 8.93329Z" stroke="#048DD7" stroke-width="1.3" stroke-linecap="round" stroke-linejoin="round"/>
<path d="M7.7334 1.33337H10.4001" stroke="#048DD7" stroke-width="1.3" stroke-linecap="round" stroke-linejoin="round"/>
<path d="M4.66675 3.33337C4.66675 2.22671 5.56008 1.33337 6.66675 1.33337H8.41341" stroke="#048DD7" stroke-width="1.3" stroke-linecap="round" stroke-linejoin="round"/>
<path d="M14.6665 5.33337V9.46004C14.6665 10.4934 13.8265 11.3334 12.7932 11.3334" stroke="#048DD7" stroke-width="1.3" stroke-linecap="round" stroke-linejoin="round"/>
<path d="M14.6667 5.33337H12.6667C11.1667 5.33337 10.6667 4.83337 10.6667 3.33337V1.33337L14.6667 5.33337Z" stroke="#048DD7" stroke-width="1.3" stroke-linecap="round" stroke-linejoin="round"/>
</svg>
