<svg width="32" height="32" viewBox="0 0 32 32" fill="none" xmlns="http://www.w3.org/2000/svg">
<path d="M28.0799 15.76L27.8666 15.4667C27.4933 15.0134 27.0533 14.6534 26.5466 14.3867C25.8666 14 25.0933 13.8 24.2933 13.8H7.69327C6.89327 13.8 6.13327 14 5.43994 14.3867C4.91994 14.6667 4.45327 15.0534 4.0666 15.5334C3.3066 16.5067 2.9466 17.7067 3.0666 18.9067L3.55994 25.1334C3.73327 27.0134 3.95994 29.3334 8.1866 29.3334H23.8133C28.0399 29.3334 28.2533 27.0134 28.4399 25.12L28.9333 18.92C29.0533 17.8 28.7599 16.68 28.0799 15.76ZM19.1866 23.12H12.7999C12.2799 23.12 11.8666 22.6934 11.8666 22.1867C11.8666 21.68 12.2799 21.2534 12.7999 21.2534H19.1866C19.7066 21.2534 20.1199 21.68 20.1199 22.1867C20.1199 22.7067 19.7066 23.12 19.1866 23.12Z" fill="#848793"/>
<path d="M4.50659 15.08C4.79993 14.8133 5.09326 14.5733 5.43992 14.3866C6.11992 14 6.89326 13.8 7.69326 13.8H24.3066C25.1066 13.8 25.8666 14 26.5599 14.3866C26.9066 14.5733 27.2133 14.8133 27.4933 15.0933V14.3866V13.0933C27.4933 8.33329 26.0399 6.87996 21.2799 6.87996H18.1066C17.5199 6.87996 17.5066 6.86663 17.1599 6.41329L15.5599 4.26663C14.7999 3.27996 14.1999 2.66663 12.2933 2.66663H10.7199C5.95992 2.66663 4.50659 4.11996 4.50659 8.87996V14.4V15.08Z" fill="#3F4149"/>
</svg>
