<svg width="22" height="22" viewBox="0 0 22 22" fill="none" xmlns="http://www.w3.org/2000/svg">
<path d="M15.5833 1.83337H6.41659C3.88659 1.83337 1.83325 3.87754 1.83325 6.39837V11.88V12.7967C1.83325 15.3175 3.88659 17.3617 6.41659 17.3617H7.79159C8.03909 17.3617 8.36909 17.5267 8.52492 17.7284L9.89992 19.5525C10.5049 20.3592 11.4949 20.3592 12.0999 19.5525L13.4749 17.7284C13.6491 17.4992 13.9241 17.3617 14.2083 17.3617H15.5833C18.1133 17.3617 20.1666 15.3175 20.1666 12.7967V6.39837C20.1666 3.87754 18.1133 1.83337 15.5833 1.83337ZM11.9166 12.6042H6.41659C6.04075 12.6042 5.72909 12.2925 5.72909 11.9167C5.72909 11.5409 6.04075 11.2292 6.41659 11.2292H11.9166C12.2924 11.2292 12.6041 11.5409 12.6041 11.9167C12.6041 12.2925 12.2924 12.6042 11.9166 12.6042ZM15.5833 8.02087H6.41659C6.04075 8.02087 5.72909 7.70921 5.72909 7.33337C5.72909 6.95754 6.04075 6.64587 6.41659 6.64587H15.5833C15.9591 6.64587 16.2708 6.95754 16.2708 7.33337C16.2708 7.70921 15.9591 8.02087 15.5833 8.02087Z" fill="#848793"/>
</svg>
