<svg width="38" height="22" viewBox="0 0 38 22" fill="none" xmlns="http://www.w3.org/2000/svg">
<path d="M4.37114e-08 19C1.98158e-08 19.5467 0.48 20 1.05882 20L10.9412 20C11.52 20 12 19.5467 12 19C12 18.4533 11.52 18 10.9412 18L1.05882 18C0.48 18 6.76069e-08 18.4533 4.37114e-08 19Z" fill="#7C5319"/>
<path d="M4.37114e-08 3C1.98158e-08 3.54667 0.48 4 1.05882 4L10.9412 4C11.52 4 12 3.54667 12 3C12 2.45333 11.52 2 10.9412 2L1.05882 2C0.48 2 6.76069e-08 2.45333 4.37114e-08 3Z" fill="#7C5319"/>
<path d="M4.37114e-08 11C1.98158e-08 11.5467 0.582857 12 1.28571 12L4.71429 12C5.41714 12 6 11.5467 6 11C6 10.4533 5.41714 10 4.71429 10L1.28571 10C0.582857 10 6.76069e-08 10.4533 4.37114e-08 11Z" fill="#7C5319"/>
<path d="M25.0928 1.58524L23.1563 5.48738C22.8923 6.01949 22.1881 6.55159 21.6012 6.64028L18.095 7.2315C15.8504 7.6158 15.3223 9.2417 16.936 10.8676L19.6647 13.6168C20.1195 14.075 20.3836 14.9767 20.2369 15.627L19.4593 19.0414C18.8432 21.7315 20.2662 22.7809 22.6282 21.3768L25.9144 19.4109C26.5159 19.0562 27.4841 19.0562 28.0856 19.4109L31.3718 21.3768C33.7338 22.7809 35.1568 21.7315 34.5407 19.0414L33.7631 15.627C33.6164 14.9914 33.8805 14.0898 34.3353 13.6168L37.064 10.8676C38.6777 9.2417 38.1496 7.60102 35.905 7.2315L32.3988 6.64028C31.8119 6.53681 31.1077 6.01949 30.8437 5.48738L28.9072 1.58524C27.8655 -0.528414 26.1345 -0.528414 25.0928 1.58524Z" fill="#FF9500"/>
</svg>
