<svg width="27" height="26" viewBox="0 0 27 26" fill="none" xmlns="http://www.w3.org/2000/svg">
<circle cx="13.7188" cy="13" r="13" fill="white"/>
<path d="M15.0932 8.34766H11.9707V12.7447H15.0932C15.7942 12.7447 16.3678 12.5535 16.7501 12.1712C17.1962 11.7888 17.3874 11.2153 17.3874 10.578C17.3874 9.94079 17.1962 9.43099 16.7501 8.98491C16.3678 8.60256 15.7942 8.34766 15.0932 8.34766Z" fill="#4FAD50"/>
<path d="M13.7812 0C6.58026 0 0.78125 5.79901 0.78125 13C0.78125 20.201 6.58026 26 13.7812 26C20.9822 26 26.7812 20.201 26.7812 13C26.7175 5.79901 20.9185 0 13.7812 0ZM18.7518 13.6372C17.9234 14.4019 16.8401 14.848 15.5656 14.848H12.2518V15.9951H17.1587C17.2224 15.9951 17.3499 15.9951 17.4136 16.0588C17.4773 16.1225 17.4773 16.1863 17.4773 16.3137V17.5882C17.4773 17.652 17.4773 17.7794 17.4136 17.8431C17.3499 17.9069 17.2862 17.9069 17.1587 17.9069H12.2518V19.7549C12.2518 19.8186 12.2518 19.9461 12.1881 20.0098C12.1244 20.0735 12.0607 20.0735 11.9969 20.0735H10.3401C10.2763 20.0735 10.1489 20.0735 10.0852 20.0098C10.0214 19.9461 10.0214 19.8823 10.0214 19.7549V17.9069H7.85478C7.79105 17.9069 7.66361 17.9069 7.59988 17.8431C7.53616 17.7794 7.53615 17.7157 7.53615 17.5882V16.3137C7.53615 16.25 7.53616 16.1225 7.59988 16.0588C7.66361 15.9951 7.72733 15.9951 7.85478 15.9951H10.0214V14.848H7.85478C7.79105 14.848 7.66361 14.848 7.59988 14.7843C7.53616 14.7206 7.53615 14.6569 7.53615 14.5294V13.0637C7.53615 13 7.53616 12.9363 7.59988 12.8726C7.66361 12.8088 7.72733 12.8088 7.85478 12.8088H10.0214V6.69117C10.0214 6.62745 10.0214 6.5 10.0852 6.43628C10.1489 6.37255 10.2126 6.37255 10.3401 6.37255H15.6293C16.9038 6.37255 17.9871 6.7549 18.8156 7.58334C19.644 8.34804 20.0263 9.43138 20.0263 10.6422C20.0263 11.7892 19.5803 12.8088 18.7518 13.6372Z" fill="#4FAD50"/>
</svg>
