<svg width="22" height="22" viewBox="0 0 22 22" fill="none" xmlns="http://www.w3.org/2000/svg">
<path d="M12.5604 3.29702L14.1448 6.48967C14.3609 6.92504 14.937 7.3604 15.4172 7.43296L18.2859 7.91668C20.1224 8.23111 20.5545 9.56139 19.2342 10.8917L17.0016 13.141C16.6295 13.5159 16.4134 14.2536 16.5334 14.7857L17.1697 17.5793C17.6738 19.7803 16.5095 20.6389 14.577 19.4901L11.8882 17.8817C11.3961 17.5914 10.6039 17.5914 10.1118 17.8817L7.42304 19.4901C5.49053 20.6389 4.32621 19.7803 4.83035 17.5793L5.46655 14.7857C5.58658 14.2657 5.37051 13.528 4.99841 13.141L2.76584 10.8917C1.44549 9.56139 1.87757 8.21902 3.71406 7.91668L6.58284 7.43296C7.06297 7.3483 7.63912 6.92504 7.85517 6.48967L9.4396 3.29702C10.2918 1.56766 11.7082 1.56766 12.5604 3.29702Z" fill="#FF9500"/>
</svg>
