<svg width="16" height="16" viewBox="0 0 16 16" fill="none" xmlns="http://www.w3.org/2000/svg">
<path d="M9.38702 1.1529L10.7954 3.99082C10.9875 4.37781 11.4996 4.7648 11.9264 4.82929L14.4764 5.25927C16.1088 5.53877 16.4929 6.72124 15.3193 7.9037L13.3347 9.90315C13.004 10.2364 12.8119 10.8921 12.9186 11.3651L13.4841 13.8483C13.9323 15.8047 12.8973 16.568 11.1795 15.5467L8.78953 14.117C8.35208 13.859 7.64792 13.859 7.21047 14.117L4.82048 15.5467C3.10269 16.568 2.06775 15.8047 2.51586 13.8483L3.08138 11.3651C3.18807 10.9029 2.99601 10.2471 2.66525 9.90315L0.680743 7.9037C-0.492901 6.72124 -0.108823 5.52802 1.52361 5.25927L4.07363 4.82929C4.50041 4.75405 5.01255 4.37781 5.2046 3.99082L6.61298 1.1529C7.37051 -0.384301 8.62949 -0.384301 9.38702 1.1529Z" fill="#D5D8E4"/>
</svg>
