<svg width="27" height="26" viewBox="0 0 27 26" fill="none" xmlns="http://www.w3.org/2000/svg">
<path d="M1.18262 9.87402C2.88423 3.04673 9.71371 -1.16372 16.5381 0.356445L16.8623 0.432617C23.7058 2.11428 27.9104 8.96765 26.3955 15.8008L26.3193 16.126C24.6178 22.9531 17.7841 27.1636 10.9434 25.6436L10.6182 25.5674C3.79086 23.8606 -0.412969 17.0269 1.10645 10.1982L1.18262 9.87402Z" fill="#F6F8FC" stroke="#F6F8FC" stroke-width="0.0919522"/>
<path fill-rule="evenodd" clip-rule="evenodd" d="M8.70237 8H18.4942C18.7278 8 18.9437 8.12462 19.0602 8.3268L21.913 13.2768C22.0609 13.5335 22.017 13.8575 21.806 14.0657L13.9536 21.8118C13.6993 22.0627 13.2901 22.0627 13.0357 21.8118L5.19405 14.0761C4.97813 13.8631 4.93769 13.5297 5.09647 13.2714L8.14584 8.31092C8.26461 8.11773 8.47535 8 8.70237 8ZM17.2299 10.21V11.5989H14.4406V12.5619C16.3996 12.6648 17.8694 13.0874 17.8803 13.594L17.8802 14.6501C17.8693 15.1567 16.3996 15.5793 14.4406 15.6822V18.0455H12.5885V15.6822C10.6295 15.5793 9.15968 15.1567 9.14878 14.6501L9.14885 13.594C9.15974 13.0874 10.6295 12.6648 12.5885 12.5619V11.5989H9.79918V10.21H17.2299ZM13.5145 14.9567C15.6051 14.9567 17.3526 14.5993 17.7802 14.122C17.4175 13.7173 16.1059 13.3988 14.4406 13.3113V14.3196C14.1421 14.3352 13.8323 14.3435 13.5145 14.3435C13.1968 14.3435 12.8869 14.3352 12.5885 14.3196V13.3113C10.9232 13.3988 9.61153 13.7173 9.24889 14.122C9.67653 14.5993 11.4239 14.9567 13.5145 14.9567Z" fill="#009393"/>
</svg>
