<svg width="24" height="24" viewBox="0 0 24 24" fill="none" xmlns="http://www.w3.org/2000/svg">
<path d="M12 22C17.5228 22 22 17.5228 22 12C22 6.47715 17.5228 2 12 2C6.47715 2 2 6.47715 2 12C2 17.5228 6.47715 22 12 22Z" fill="#3F4149"/>
<path fill-rule="evenodd" clip-rule="evenodd" d="M6.52106 11.8919C9.4353 10.6263 11.3754 9.78536 12.3495 9.37737C15.1222 8.22 15.7051 8.02017 16.0798 8.01184C16.163 8.01184 16.3462 8.02849 16.4711 8.12841C16.571 8.21167 16.596 8.31992 16.6127 8.40318C16.6293 8.48645 16.646 8.6613 16.6293 8.79452C16.4794 10.3765 15.83 14.215 15.4969 15.9802C15.3554 16.7296 15.0806 16.9794 14.8142 17.0043C14.2313 17.0543 13.79 16.6213 13.2321 16.255C12.3495 15.6804 11.8583 15.3224 11.0007 14.7562C10.0098 14.1068 10.651 13.7487 11.2171 13.1659C11.367 13.016 13.9232 10.6846 13.9732 10.4765C13.9815 10.4515 13.9815 10.3516 13.9232 10.3016C13.8649 10.2516 13.7817 10.2683 13.7151 10.2849C13.6235 10.3016 12.2246 11.2342 9.50191 13.0743C9.10225 13.3491 8.74421 13.4823 8.41948 13.474C8.06145 13.4656 7.37868 13.2741 6.86245 13.1076C6.23797 12.9078 5.73838 12.7995 5.78001 12.4498C5.80499 12.2666 6.05478 12.0834 6.52106 11.8919Z" fill="#D5D8E4"/>
</svg>
