<svg width="22" height="22" viewBox="0 0 22 22" fill="none" xmlns="http://www.w3.org/2000/svg">
<path d="M20.1668 10.0559V11.9442C20.1668 12.4483 19.7635 12.8609 19.2501 12.8792H17.4535C16.4635 12.8792 15.556 12.155 15.4735 11.165C15.4185 10.5875 15.6385 10.0467 16.0235 9.67085C16.3626 9.32252 16.8301 9.12085 17.3435 9.12085H19.2501C19.7635 9.13918 20.1668 9.55168 20.1668 10.0559Z" fill="#848793"/>
<path d="M18.7641 14.2542H17.4533C15.7116 14.2542 14.2449 12.9434 14.0983 11.275C14.0158 10.3217 14.3641 9.36837 15.0608 8.69004C15.6474 8.08504 16.4633 7.74587 17.3433 7.74587H18.7641C19.0299 7.74587 19.2499 7.52587 19.2224 7.26004C19.0208 5.03254 17.5449 3.51087 15.3541 3.25421C15.1341 3.21754 14.9049 3.20837 14.6666 3.20837H6.41658C6.15992 3.20837 5.91242 3.22671 5.67409 3.26337C3.33659 3.55671 1.83325 5.29837 1.83325 7.79171V14.2084C1.83325 16.7384 3.88659 18.7917 6.41658 18.7917H14.6666C17.2333 18.7917 19.0024 17.1875 19.2224 14.74C19.2499 14.4742 19.0299 14.2542 18.7641 14.2542ZM11.9166 8.93754H6.41658C6.04075 8.93754 5.72909 8.62587 5.72909 8.25004C5.72909 7.87421 6.04075 7.56254 6.41658 7.56254H11.9166C12.2924 7.56254 12.6041 7.87421 12.6041 8.25004C12.6041 8.62587 12.2924 8.93754 11.9166 8.93754Z" fill="#848793"/>
</svg>
